<svg width="295" height="122" viewBox="0 0 295 122" fill="none" xmlns="http://www.w3.org/2000/svg">
<path d="M9.024 74.056H0V69.64L9.024 67.816V63.304C9.024 59.336 10.048 55.688 12.096 52.36C14.208 49.032 16.928 46.408 20.256 44.488C23.648 42.504 27.232 41.512 31.008 41.512C33.184 41.512 35.072 41.8 36.672 42.376V51.976C36.096 51.464 34.944 50.984 33.216 50.536C31.552 50.024 29.696 49.768 27.648 49.768C24.64 49.768 22.432 50.568 21.024 52.168C19.68 53.704 19.008 56.392 19.008 60.232V67.816H32.256V74.056H19.008V115.528L29.664 116.296V121H0.864V116.296L9.024 115.432V74.056Z" fill="#F7CF42"/>
<path d="M63.3975 122.056C55.6535 122.056 49.7335 119.528 45.6375 114.472C41.6055 109.416 39.5895 102.664 39.5895 94.216C39.5895 88.648 40.6455 83.752 42.7575 79.528C44.8695 75.304 47.8135 72.04 51.5895 69.736C55.4295 67.432 59.7815 66.28 64.6455 66.28C70.5975 66.28 75.2055 67.944 78.4695 71.272C81.7975 74.536 83.5575 79.24 83.7495 85.384C83.7495 89.288 83.5255 92.264 83.0775 94.312H50.0535C50.1815 100.648 51.6535 105.768 54.4695 109.672C57.2855 113.512 61.2855 115.432 66.4695 115.432C69.0295 115.432 71.6855 114.984 74.4375 114.088C77.2535 113.128 79.4295 112.008 80.9655 110.728L82.7895 114.952C80.9335 116.872 78.1815 118.536 74.5335 119.944C70.8855 121.352 67.1735 122.056 63.3975 122.056ZM73.1895 89.224C73.3815 87.88 73.4775 86.504 73.4775 85.096C73.4135 80.936 72.5175 77.672 70.7895 75.304C69.1255 72.872 66.4695 71.656 62.8215 71.656C59.1095 71.656 56.1335 73 53.8935 75.688C51.7175 78.376 50.4695 82.888 50.1495 89.224H73.1895Z" fill="#F7CF42"/>
<path d="M108.416 121.96C104.768 121.96 102.048 121.128 100.256 119.464C98.4643 117.8 97.5683 114.952 97.5683 110.92V74.056H90.6562V69.736C90.9763 69.672 91.8723 69.448 93.3443 69.064C94.8163 68.68 95.8083 68.328 96.3203 68.008C97.3443 67.432 98.1443 66.28 98.7203 64.552C99.2323 63.336 99.8403 61.384 100.544 58.696C101.248 56.008 101.664 54.408 101.792 53.896H107.456L107.648 67.72H123.68V74.056H107.648V103.528C107.648 107.176 107.744 109.736 107.936 111.208C108.192 112.68 108.672 113.64 109.376 114.088C110.144 114.536 111.424 114.76 113.216 114.76C114.944 114.76 116.832 114.536 118.88 114.088C120.992 113.64 122.624 113.16 123.776 112.648L125.216 116.968C123.68 118.12 121.184 119.24 117.728 120.328C114.336 121.416 111.232 121.96 108.416 121.96Z" fill="#F7CF42"/>
<path d="M129.942 94.696C129.942 89.384 130.966 84.584 133.014 80.296C135.126 76.008 138.198 72.616 142.23 70.12C146.326 67.56 151.222 66.28 156.918 66.28C159.67 66.28 162.038 66.536 164.022 67.048C166.006 67.56 168.374 68.264 171.126 69.16L170.742 83.944H164.502L162.39 74.152C162.006 72.36 159.574 71.464 155.094 71.464C150.614 71.464 147.062 73.288 144.438 76.936C141.878 80.52 140.598 85.64 140.598 92.296C140.598 99.848 142.038 105.608 144.918 109.576C147.862 113.48 151.67 115.432 156.342 115.432C159.03 115.432 161.558 115.016 163.926 114.184C166.358 113.352 168.438 112.36 170.166 111.208L171.99 115.048C170.262 116.84 167.702 118.472 164.31 119.944C160.982 121.352 157.59 122.056 154.134 122.056C148.886 122.056 144.438 120.872 140.79 118.504C137.206 116.136 134.486 112.904 132.63 108.808C130.838 104.648 129.942 99.944 129.942 94.696Z" fill="#F7CF42"/>
<path d="M185.497 49.384L177.433 48.328V44.2L193.081 42.376H193.273L195.385 43.816V66.088L195.001 74.248C197.049 72.392 199.865 70.632 203.449 68.968C207.033 67.304 210.649 66.472 214.297 66.472C218.329 66.472 221.465 67.24 223.705 68.776C225.945 70.312 227.513 72.68 228.409 75.88C229.305 79.016 229.753 83.272 229.753 88.648V115.432L236.473 116.296V121H213.529V116.296L219.769 115.432V88.552C219.769 84.776 219.513 81.832 219.001 79.72C218.489 77.544 217.529 75.944 216.121 74.92C214.713 73.832 212.601 73.288 209.785 73.288C207.481 73.288 205.017 73.864 202.393 75.016C199.769 76.168 197.465 77.512 195.481 79.048V115.432L202.105 116.296V121H179.737V116.296L185.497 115.528V49.384Z" fill="#F7CF42"/>
<path d="M239.306 42.048L239.594 50.208L231.242 49.728H221.354V57.024H231.242L239.594 56.736L239.306 64.704V74H246.698V64.704L246.218 56.736L253.514 57.024H264.65L263.633 49.728H253.514L246.218 50.208L246.698 42.048V31.776L239.306 31.488V42.048Z" fill="#8D8752"/>
<path fill-rule="evenodd" clip-rule="evenodd" d="M266.524 49.5C277.846 49.5 287.024 39.8218 287.024 28.5C287.024 17.1782 277.846 8 266.524 8C255.202 8 247.024 17.1782 247.024 28.5C247.024 34.4221 242.008 46.7576 246.024 50.5C249.685 53.9123 260.024 49.5 266.524 49.5ZM266.524 57C282.264 57 295.024 44.2401 295.024 28.5C295.024 12.7599 282.264 0 266.524 0C250.784 0 239.024 12.7599 239.024 28.5C239.024 36.6968 238.484 47.8007 244.024 53C249.122 57.7847 258.981 57 266.524 57Z" fill="#8D8752"/>
</svg>
